<svg xmlns="http://www.w3.org/2000/svg" width="1408" height="768" viewBox="0 0 1408 768" style="fill-rule:evenodd">
<defs>
</defs>
























<g data-color-group="#ffffff" id="white"><path d="M 0 768 C 0 512, 0 256, 0 0 C 469.333 0, 938.667 0, 1408 0 C 1408 256, 1408 512, 1408 768 C 938.667 768, 469.333 768, 0 768 Z M 405.771 455.986 C 399.29 462.288, 398.402 465.671, 402.174 469.686 C 405.866 473.616, 409.135 472.751, 416.73 465.837 C 449.468 436.032, 495.956 427.518, 538.5 443.534 C 542.35 444.984, 545.644 446.312, 545.819 446.487 C 546.187 446.854, 534.091 465, 533.479 465 C 533.256 465, 530.92 464.153, 528.287 463.119 C 512.021 456.726, 488.94 455.742, 470.5 460.656 C 461.845 462.962, 445.489 470.948, 438.369 476.344 C 414.443 494.477, 400.054 523.295, 400.013 553.162 C 399.924 618.701, 465.58 665.304, 527.162 643.412 C 557.176 632.742, 579.776 608.197, 588.539 576.75 C 589.421 573.588, 590.71 571, 591.405 571 C 592.1 571, 597.805 574.818, 604.084 579.485 C 628.392 597.554, 625.688 597.004, 690.144 596.985 C 745.713 596.969, 748.283 596.763, 759.567 591.425 C 767.864 587.5, 776.417 580.566, 781.758 573.434 C 784.471 569.811, 790.699 558.329, 795.964 547.241 C 818.116 500.591, 844.266 446.433, 845.028 445.624 C 845.769 444.836, 855 471.714, 855 474.661 C 855 475.33, 850.795 480.068, 845.655 485.189 C 825.633 505.139, 815.967 529.785, 817.293 557.5 C 818.528 583.29, 828.514 604.889, 847.472 622.777 C 874.147 647.946, 911.797 655.564, 945.873 642.687 C 958.525 637.905, 967.837 632.009, 977.983 622.353 C 991.73 609.271, 1000.26 595.022, 1005.13 577 C 1008.21 565.586, 1008.45 541.302, 1005.59 530.5 C 1003.08 521.031, 997.293 507.789, 992.472 500.5 C 979.071 480.238, 956.309 464.566, 932.742 459.374 C 924.984 457.664, 905.932 457.062, 899.72 458.33 C 895.107 459.272, 895.76 460.589, 886.67 432 C 884.498 425.167, 882.325 418.333, 880.153 411.5 C 882.579 411.486, 885.006 411.473, 887.432 411.459 C 895.392 411.415, 898.634 410.015, 901.736 405.28 C 903.311 402.876, 903.5 399.697, 903.5 375.544 C 903.5 349.325, 903.432 348.391, 901.275 344.922 C 900.051 342.954, 897.892 340.816, 896.477 340.172 C 889.481 336.984, 874.397 340.696, 863.692 348.24 C 862.148 349.328, 860.781 350.057, 860.654 349.859 C 860.528 349.662, 858.591 347.025, 856.35 344 C 854.109 340.975, 851.754 336.925, 851.115 335 C 849.224 329.295, 843.12 321.268, 838.191 318.003 C 832.566 314.277, 825.228 312, 818.848 312 C 817.251 312, 815.655 312, 814.059 312 C 813.199 310.182, 812.339 308.364, 811.479 306.546 C 808.738 300.754, 804.541 296.552, 799.301 294.356 C 797.542 293.619, 787.192 291.689, 776.301 290.067 C 765.411 288.445, 751.55 286.379, 745.5 285.475 C 739.45 284.571, 734.236 283.532, 733.914 283.166 C 732.205 281.224, 706.969 238.698, 707.318 238.349 C 707.545 238.121, 711.954 240.008, 717.116 242.54 C 725.507 246.657, 727.089 247.105, 732.065 246.772 C 735.768 246.524, 738.685 245.649, 740.78 244.156 C 745.311 240.93, 755.509 225.238, 756.882 219.38 C 761.026 201.701, 762.231 175.847, 759.459 164.088 C 756.846 153.001, 752.477 145.289, 743.982 136.766 C 738.192 130.956, 734.428 128.155, 728.858 125.51 C 710.813 116.94, 693.399 117.085, 675.403 125.954 C 660.911 133.097, 649.558 147.486, 645.4 163.981 C 642.311 176.235, 644.896 199.831, 650.133 207.187 C 650.831 208.167, 651.529 209.147, 652.227 210.128 C 651.507 210.316, 650.786 210.505, 650.066 210.693 C 644.263 212.211, 633.796 218.297, 628.456 223.259 C 620.516 230.636, 617.929 235.21, 605.416 264 C 599.56 277.475, 591.045 297.05, 586.495 307.5 C 569.962 345.472, 564.946 357.922, 563.873 363.655 C 562.875 368.987, 563.169 377.617, 564.62 385.607 C 564.809 386.643, 564.997 387.679, 565.185 388.715 C 562.904 387.937, 560.623 387.16, 558.343 386.383 C 551.64 384.099, 550.697 384.051, 512.364 384.026 C 499.319 384.017, 486.274 384.009, 473.228 384 C 471.44 384.922, 469.652 385.843, 467.864 386.765 C 463.43 389.051, 462.023 390.468, 459.75 394.944 C 455.23 403.843, 456.511 411.774, 463.615 418.878 C 468.491 423.755, 468.63 424, 466.512 424 C 465.694 424, 460.631 425.405, 455.262 427.122 C 437.076 432.938, 418.078 444.018, 405.771 455.986 Z " fill="rgb(255,255,255)"/><path d="M 416.958 534.5 C 421.366 517.806, 427.221 507.633, 439.431 495.453 C 446.734 488.168, 450.297 485.484, 457.726 481.668 C 470.922 474.892, 479.702 472.76, 495 472.617 C 504.189 472.531, 509.403 472.988, 514.684 474.342 C 525.941 477.227, 526.047 477.416, 520.872 485.38 C 515.961 492.937, 517.883 492.435, 503 490.044 C 491.945 488.268, 478.481 490.688, 467.087 496.498 C 441.381 509.607, 427.56 538.376, 433.499 566.412 C 438.601 590.494, 458.873 610.486, 483.208 615.433 C 492.908 617.405, 498.09 617.405, 507.792 615.434 C 529.506 611.022, 547.545 595.529, 555.16 574.75 C 555.863 572.833, 556.565 570.917, 557.268 569 C 560.25 569, 563.232 569, 566.213 569 C 569.195 569, 572.177 569, 575.159 569 C 574.926 570.083, 574.693 571.167, 574.46 572.25 C 573.059 578.77, 568.802 588.651, 564.233 595.988 C 540.496 634.111, 489.249 645.524, 452.083 620.965 C 433.792 608.88, 421.881 592.144, 416.959 571.614 C 414.388 560.89, 414.388 544.236, 416.958 534.5 Z " fill="rgb(255,255,255)"/><path d="M 448.588 540.083 C 453.382 522.251, 470.458 507.302, 488.5 505.14 C 497.479 504.064, 505.538 504.954, 505.397 507.006 C 505.34 507.828, 502.787 512.38, 499.723 517.122 C 495.577 523.54, 493.446 525.922, 491.387 526.439 C 484.075 528.274, 479 535.816, 479 544.848 C 479 553.972, 483.821 561.646, 492.5 566.338 C 496.198 568.336, 498.182 568.524, 518.75 568.819 C 532.15 569.011, 541 569.521, 541 570.102 C 541 572.967, 534.966 582.219, 529.593 587.593 C 522.65 594.535, 515.933 598.332, 506.769 600.492 C 476.308 607.674, 446.798 584.272, 447.066 553.145 C 447.102 548.94, 447.787 543.062, 448.588 540.083 Z " fill="rgb(255,255,255)"/><path d="M 473.08 400.75 C 474.023 399.132, 476.97 399, 512.222 399 C 524.93 399, 537.638 399, 550.345 399 C 555.204 400.868, 560.063 402.737, 564.923 404.605 C 572.94 407.688, 583.1 412.094, 587.5 414.395 C 591.9 416.697, 603.727 422.162, 613.781 426.54 C 619.875 429.193, 625.969 431.847, 632.063 434.5 C 619.71 434.587, 607.358 434.675, 595.005 434.762 C 582.653 434.85, 570.3 434.937, 557.947 435.024 C 552.897 433.338, 547.847 431.651, 542.797 429.965 C 534.465 427.182, 520.639 422.913, 512.074 420.477 C 483.518 412.357, 473.747 409.209, 472.885 407.849 C 471.743 406.046, 471.829 402.898, 473.08 400.75 Z " fill="rgb(255,255,255)"/><path d="M 579.713 360.75 C 580.614 358.138, 581.885 356, 582.538 356 C 584.002 356, 644.975 380.442, 650.5 383.245 C 652.7 384.36, 665.075 391.307, 678 398.682 C 704.685 413.908, 709.104 417.593, 710.938 426.146 C 712.991 435.721, 714.219 432.947, 682.465 490.5 C 669.012 514.883, 662.603 527.473, 662.602 529.515 C 662.601 531.455, 664.124 534.691, 666.871 538.587 C 670.446 543.657, 671.09 545.283, 670.821 548.572 C 670.518 552.274, 670.299 552.515, 667 552.763 C 664.29 552.966, 660.005 551.24, 648.014 545.112 C 639.497 540.76, 632.094 536.51, 631.563 535.669 C 630.435 533.881, 630.546 533.631, 655.397 481.755 C 667.384 456.732, 673 443.941, 673 441.66 C 673 436.151, 675.441 437.501, 626.5 415.94 C 610 408.671, 594.601 401.424, 592.28 399.834 C 587.556 396.6, 584.325 392.658, 580.942 386 C 577.936 380.086, 577.331 367.654, 579.713 360.75 Z " fill="rgb(255,255,255)"/><path d="M 598.577 316.5 C 604.327 303.3, 612.221 285.075, 616.12 276 C 629.069 245.858, 632.262 239.875, 638.394 234.271 C 650.231 223.453, 664.147 220.713, 676.808 226.71 C 683.305 229.787, 688.206 236.011, 701.444 258 C 720.148 289.066, 724.706 295.938, 727.241 296.896 C 728.484 297.366, 741.875 299.619, 757 301.903 C 793.867 307.472, 794.559 307.624, 796.98 310.702 C 800.086 314.65, 799.693 320.461, 796.077 324.077 C 792.59 327.564, 792.239 327.582, 767.31 325.544 C 757.515 324.743, 742.3 323.598, 733.5 322.999 C 715.689 321.786, 710.808 320.484, 706.279 315.738 C 704.58 313.957, 696.622 303.5, 688.596 292.5 C 667.831 264.043, 669.573 266, 665.014 266 C 662.117 266, 660.713 266.572, 659.557 268.223 C 656.659 272.359, 657.686 274.908, 668 289.195 C 673.5 296.813, 678 303.428, 678 303.894 C 678 304.361, 675.139 311.213, 671.643 319.121 C 668.146 327.029, 662.008 341.061, 658.001 350.303 C 653.692 360.244, 650.265 366.905, 649.609 366.615 C 648.999 366.344, 635.004 360.707, 618.508 354.086 C 602.013 347.466, 588.428 341.7, 588.319 341.274 C 588.211 340.848, 592.827 329.7, 598.577 316.5 Z " fill="rgb(255,255,255)"/><path d="M 592.695 453.75 C 593.554 452.5, 594.412 451.25, 595.271 450 C 605.059 450, 614.847 450, 624.635 450 C 640.786 450, 654 450.198, 654 450.439 C 654 450.681, 649.747 459.794, 644.549 470.689 C 641.399 477.293, 638.249 483.896, 635.099 490.5 C 631.438 490.594, 627.778 490.688, 624.117 490.782 C 620.457 490.876, 616.797 490.97, 613.136 491.064 C 610.954 487.755, 608.772 484.446, 606.591 481.137 C 602.991 475.678, 597.785 468.738, 595.023 465.715 C 592.26 462.693, 590.027 459.608, 590.06 458.86 C 590.093 458.112, 591.279 455.812, 592.695 453.75 Z " fill="rgb(255,255,255)"/><path d="M 659.071 170.716 C 662.266 149.368, 680.502 134, 702.637 134 C 715.432 134, 728.872 140.126, 736.501 149.436 C 740.222 153.977, 745.582 164.751, 744.606 165.727 C 744.277 166.057, 739.618 165.495, 734.254 164.478 C 718.903 161.569, 715.023 161.504, 709.089 164.057 C 698.634 168.555, 693.368 179.03, 696.016 190.066 C 698.035 198.485, 703.396 203.054, 722.721 212.828 C 731.611 217.324, 739.099 221.351, 739.362 221.776 C 739.624 222.201, 738.277 224.702, 736.367 227.334 C 733.5 231.285, 732.424 232.065, 730.197 231.809 C 728.714 231.639, 712.573 223.979, 694.328 214.786 C 683.271 209.215, 672.214 203.644, 661.157 198.073 C 660.819 196.31, 660.481 194.548, 660.143 192.786 C 658.503 184.232, 658.146 176.892, 659.071 170.716 Z " fill="rgb(255,255,255)"/><path d="M 674.605 349 C 680.416 335.525, 685.802 322.996, 686.573 321.159 C 687.04 320.045, 687.507 318.931, 687.974 317.818 C 690.228 320.133, 692.483 322.448, 694.737 324.763 C 704.993 335.296, 705.24 335.357, 752.096 339.02 C 788.24 341.846, 791.609 341.964, 796.359 340.574 C 802.436 338.795, 807.814 334.618, 810.537 329.562 C 811.191 328.347, 811.845 327.133, 812.499 325.918 C 814.332 326.142, 816.166 326.365, 817.999 326.588 C 826.24 327.591, 830.832 329.785, 834.084 334.274 C 837.311 338.729, 837.211 339.481, 833.259 340.467 C 826.789 342.082, 820.67 349.074, 819.46 356.235 C 818.936 359.336, 818.462 360.003, 817.15 359.48 C 816.243 359.118, 811.9 357.902, 807.5 356.776 C 800.525 354.992, 797.579 354.805, 784.5 355.312 C 775.229 355.672, 765.743 356.693, 759.662 357.986 C 738.377 362.51, 713.627 372.395, 697.202 382.931 C 694.489 384.672, 691.775 386.412, 689.062 388.153 C 684.885 385.748, 680.708 383.344, 676.531 380.939 C 669.639 376.971, 664.009 373.674, 664.02 373.612 C 664.03 373.551, 668.794 362.475, 674.605 349 Z " fill="rgb(255,255,255)"/><path d="M 684.285 517.333 C 686.347 513.611, 688.41 509.889, 690.472 506.166 C 693.098 505.934, 695.724 505.701, 698.35 505.469 C 707.452 504.663, 710 502.954, 710 497.655 C 710 493.515, 707.419 491, 703.171 491 C 699.018 491, 699.111 489.683, 703.818 481.852 C 705.917 478.358, 710.711 469.757, 714.47 462.738 C 716.748 458.484, 719.026 454.23, 721.305 449.976 C 733.558 450.063, 745.811 450.151, 758.064 450.238 C 770.317 450.325, 782.57 450.413, 794.823 450.5 C 792.537 455.262, 790.251 460.024, 787.965 464.786 C 785.679 469.548, 783.393 474.31, 781.107 479.072 C 779.84 478.522, 778.572 477.973, 777.304 477.423 C 775.212 476.516, 770.8 474.657, 767.5 473.292 C 764.2 471.926, 755.79 468.377, 748.81 465.405 C 741.831 462.432, 735.278 460, 734.249 460 C 728.529 460, 725.784 469.112, 730.408 472.749 C 731.733 473.791, 741.745 478.372, 752.658 482.93 C 763.571 487.488, 772.916 491.607, 773.425 492.084 C 773.981 492.604, 772.427 497.153, 769.535 503.476 C 762.596 518.642, 763.196 518.193, 757.72 512.338 C 746.5 500.344, 729.856 497.937, 715.918 506.293 C 709.837 509.939, 703.734 517.409, 701.511 523.928 C 699.194 530.72, 699.589 541.385, 702.412 548.25 C 703.2 550.167, 703.989 552.083, 704.777 554 C 701.647 554, 698.518 554, 695.388 554 C 692.259 554, 689.129 554, 686 554 C 685.998 552.583, 685.996 551.167, 685.994 549.75 C 685.987 543.888, 684.553 539.264, 681.013 533.681 C 679.356 531.068, 678.022 528.834, 678.049 528.715 C 678.076 528.597, 680.882 523.475, 684.285 517.333 Z " fill="rgb(255,255,255)"/><path d="M 708.25 393.333 C 715.649 388.647, 732.109 381.353, 743.5 377.714 C 763.394 371.359, 768.711 370.498, 788 370.515 C 804.06 370.528, 805.987 370.725, 811.419 372.9 C 823.851 377.878, 829.759 386.951, 828.751 399.512 C 827.552 414.447, 814.025 429.155, 797.54 433.448 C 792.742 434.697, 785.211 435, 758.924 435 C 748.039 435, 737.154 435, 726.269 435 C 726.107 432.735, 725.945 430.47, 725.783 428.205 C 724.901 415.881, 717.332 403.843, 707.157 398.581 C 705.421 397.683, 704 396.741, 704 396.487 C 704 396.233, 705.912 394.814, 708.25 393.333 Z M 740.809 393.191 C 736.724 397.276, 740.003 405, 745.824 405 C 747.377 405, 752.262 403.918, 756.679 402.596 C 761.097 401.274, 768.042 399.655, 772.113 398.998 C 780.817 397.594, 798.656 398.188, 804.739 400.085 C 808.625 401.297, 809.207 401.236, 811.739 399.346 C 815.525 396.519, 815.661 390.555, 812 387.91 C 808.81 385.605, 795.941 382.998, 787.792 383.006 C 773.757 383.019, 744.677 389.323, 740.809 393.191 Z " fill="rgb(255,255,255)"/><path d="M 710.669 180.229 C 710.951 179.53, 712.432 178.311, 713.961 177.52 C 716.463 176.226, 718.213 176.366, 731.414 178.917 C 739.483 180.476, 746.365 182.031, 746.706 182.373 C 747.564 183.23, 745.096 205.294, 744.021 206.374 C 742.898 207.504, 714.068 192.582, 711.772 189.682 C 710.122 187.598, 709.579 182.939, 710.669 180.229 Z " fill="rgb(255,255,255)"/><path d="M 715.459 528.655 C 720.213 515.32, 736.821 511.872, 746.689 522.172 C 754.217 530.029, 753.874 541.112, 745.869 548.689 C 739.921 554.318, 732.856 555.505, 725.5 552.11 C 720.659 549.876, 717.612 546.71, 715.548 541.768 C 713.67 537.274, 713.646 533.74, 715.459 528.655 Z " fill="rgb(255,255,255)"/><path d="M 833.406 536.486 C 835.562 527.033, 840.293 515.83, 845.283 508.359 C 850.773 500.139, 859.607 491.172, 860.864 492.544 C 861.801 493.567, 866 507.016, 866 508.996 C 866 509.648, 864.457 511.985, 862.571 514.188 C 853.804 524.43, 848.312 542.106, 849.295 556.916 C 850.348 572.777, 856.527 586.291, 868.035 597.905 C 885.584 615.615, 910.176 621.282, 933.659 613.029 C 948.364 607.86, 962.055 595.775, 968.875 581.942 C 985.959 547.295, 970.339 507.201, 934.361 493.353 C 928.916 491.257, 925.211 490.614, 916.408 490.236 C 912.711 490.078, 909.014 489.919, 905.317 489.76 C 904.597 487.527, 903.878 485.293, 903.158 483.059 C 901.971 479.374, 901 475.63, 901 474.74 C 901 470.832, 920.852 471.295, 935.625 475.547 C 947.344 478.921, 957.575 484.857, 967.142 493.834 C 984.433 510.059, 993.009 529.753, 992.993 553.197 C 992.972 584.755, 975.815 612.2, 947.5 625.973 C 937.106 631.028, 929.72 632.945, 917.788 633.685 C 893.846 635.169, 873.236 627.302, 855.913 610.067 C 845.808 600.013, 840.399 591.346, 835.9 578 C 833.074 569.618, 832.659 566.97, 832.366 555.5 C 832.148 546.934, 832.503 540.449, 833.406 536.486 Z " fill="rgb(255,255,255)"/><path d="M 865.12 542.582 C 866.433 536.982, 871.18 526.766, 872.032 527.706 C 872.427 528.143, 874.669 534.35, 877.014 541.5 C 882.672 558.753, 884.164 561.514, 889.742 565.052 C 901.455 572.479, 918.494 566.021, 922.052 552.805 C 923.566 547.186, 922.949 544.009, 916.491 524.15 C 913.471 514.862, 911 506.529, 911 505.632 C 911 503.608, 913.327 503.574, 922.27 505.469 C 959.389 513.335, 973.611 558.337, 947.857 586.434 C 929.424 606.545, 897.836 606.892, 878.221 587.198 C 866.656 575.587, 861.499 558.023, 865.12 542.582 Z " fill="rgb(255,255,255)"/><path d="M 868.03 363.689 C 870.409 360.665, 883.206 354, 886.634 354 C 887.423 354, 888.211 354, 889 354 C 889 361.167, 889 368.333, 889 375.5 C 889 387.325, 888.607 397, 888.126 397 C 886.877 397, 878.913 394.2, 876.247 392.823 C 874.529 391.935, 873.047 388.747, 869.997 379.372 C 867.799 372.614, 866 366.902, 866 366.677 C 866 366.453, 866.913 365.108, 868.03 363.689 Z " fill="rgb(255,255,255)"/></g><g data-color-group="#2e9152" id="green"><path d="M 405.771 455.986 C 418.078 444.018, 437.076 432.938, 455.262 427.122 C 460.631 425.405, 465.694 424, 466.512 424 C 468.63 424, 468.491 423.755, 463.615 418.878 C 456.511 411.774, 455.23 403.843, 459.75 394.944 C 462.023 390.468, 463.43 389.051, 467.864 386.765 C 469.652 385.843, 471.44 384.922, 473.228 384 C 486.274 384.009, 499.319 384.017, 512.364 384.026 C 550.697 384.051, 551.64 384.099, 558.343 386.383 C 560.623 387.16, 562.904 387.937, 565.185 388.715 C 564.997 387.679, 564.809 386.643, 564.62 385.607 C 563.169 377.617, 562.875 368.987, 563.873 363.655 C 564.946 357.922, 569.962 345.472, 586.495 307.5 C 591.045 297.05, 599.56 277.475, 605.416 264 C 617.929 235.21, 620.516 230.636, 628.456 223.259 C 633.796 218.297, 644.263 212.211, 650.066 210.693 C 650.786 210.505, 651.507 210.316, 652.227 210.128 C 651.529 209.147, 650.831 208.167, 650.133 207.187 C 644.896 199.831, 642.311 176.235, 645.4 163.981 C 649.558 147.486, 660.911 133.097, 675.403 125.954 C 693.399 117.085, 710.813 116.94, 728.858 125.51 C 734.428 128.155, 738.192 130.956, 743.982 136.766 C 752.477 145.289, 756.846 153.001, 759.459 164.088 C 762.231 175.847, 761.026 201.701, 756.882 219.38 C 755.509 225.238, 745.311 240.93, 740.78 244.156 C 738.685 245.649, 735.768 246.524, 732.065 246.772 C 727.089 247.105, 725.507 246.657, 717.116 242.54 C 711.954 240.008, 707.545 238.121, 707.318 238.349 C 706.969 238.698, 732.205 281.224, 733.914 283.166 C 734.236 283.532, 739.45 284.571, 745.5 285.475 C 751.55 286.379, 765.411 288.445, 776.301 290.067 C 787.192 291.689, 797.542 293.619, 799.301 294.356 C 804.541 296.552, 808.738 300.754, 811.479 306.546 C 812.339 308.364, 813.199 310.182, 814.059 312 C 815.655 312, 817.251 312, 818.848 312 C 825.228 312, 832.566 314.277, 838.191 318.003 C 843.12 321.268, 849.224 329.295, 851.115 335 C 851.754 336.925, 854.109 340.975, 856.35 344 C 858.591 347.025, 860.528 349.662, 860.654 349.859 C 860.781 350.057, 862.148 349.328, 863.692 348.24 C 874.397 340.696, 889.481 336.984, 896.477 340.172 C 897.892 340.816, 900.051 342.954, 901.275 344.922 C 903.432 348.391, 903.5 349.325, 903.5 375.544 C 903.5 399.697, 903.311 402.876, 901.736 405.28 C 898.634 410.015, 895.392 411.415, 887.432 411.459 C 885.006 411.473, 882.579 411.486, 880.153 411.5 C 882.325 418.333, 884.498 425.167, 886.67 432 C 895.76 460.589, 895.107 459.272, 899.72 458.33 C 905.932 457.062, 924.984 457.664, 932.742 459.374 C 956.309 464.566, 979.071 480.238, 992.472 500.5 C 997.293 507.789, 1003.08 521.031, 1005.59 530.5 C 1008.45 541.302, 1008.21 565.586, 1005.13 577 C 1000.26 595.022, 991.73 609.271, 977.983 622.353 C 967.837 632.009, 958.525 637.905, 945.873 642.687 C 911.797 655.564, 874.147 647.946, 847.472 622.777 C 828.514 604.889, 818.528 583.29, 817.293 557.5 C 815.967 529.785, 825.633 505.139, 845.655 485.189 C 850.795 480.068, 855 475.33, 855 474.661 C 855 471.714, 845.769 444.836, 845.028 445.624 C 844.266 446.433, 818.116 500.591, 795.964 547.241 C 790.699 558.329, 784.471 569.811, 781.758 573.434 C 776.417 580.566, 767.864 587.5, 759.567 591.425 C 748.283 596.763, 745.713 596.969, 690.144 596.985 C 625.688 597.004, 628.392 597.554, 604.084 579.485 C 597.805 574.818, 592.1 571, 591.405 571 C 590.71 571, 589.421 573.588, 588.539 576.75 C 579.776 608.197, 557.176 632.742, 527.162 643.412 C 465.58 665.304, 399.924 618.701, 400.013 553.162 C 400.054 523.295, 414.443 494.477, 438.369 476.344 C 445.489 470.948, 461.845 462.962, 470.5 460.656 C 488.94 455.742, 512.021 456.726, 528.287 463.119 C 530.92 464.153, 533.256 465, 533.479 465 C 534.091 465, 546.187 446.854, 545.819 446.487 C 545.644 446.312, 542.35 444.984, 538.5 443.534 C 495.956 427.518, 449.468 436.032, 416.73 465.837 C 409.135 472.751, 405.866 473.616, 402.174 469.686 C 398.402 465.671, 399.29 462.288, 405.771 455.986 Z M 416.958 534.5 C 414.388 544.236, 414.388 560.89, 416.959 571.614 C 421.881 592.144, 433.792 608.88, 452.083 620.965 C 489.249 645.524, 540.496 634.111, 564.233 595.988 C 568.802 588.651, 573.059 578.77, 574.46 572.25 C 574.693 571.167, 574.926 570.083, 575.159 569 C 572.177 569, 569.195 569, 566.213 569 C 563.232 569, 560.25 569, 557.268 569 C 556.565 570.917, 555.863 572.833, 555.16 574.75 C 547.545 595.529, 529.506 611.022, 507.792 615.434 C 498.09 617.405, 492.908 617.405, 483.208 615.433 C 458.873 610.486, 438.601 590.494, 433.499 566.412 C 427.56 538.376, 441.381 509.607, 467.087 496.498 C 478.481 490.688, 491.945 488.268, 503 490.044 C 517.883 492.435, 515.961 492.937, 520.872 485.38 C 526.047 477.416, 525.941 477.227, 514.684 474.342 C 509.403 472.988, 504.189 472.531, 495 472.617 C 479.702 472.76, 470.922 474.892, 457.726 481.668 C 450.297 485.484, 446.734 488.168, 439.431 495.453 C 427.221 507.633, 421.366 517.806, 416.958 534.5 Z M 448.588 540.083 C 447.787 543.062, 447.102 548.94, 447.066 553.145 C 446.798 584.272, 476.308 607.674, 506.769 600.492 C 515.933 598.332, 522.65 594.535, 529.593 587.593 C 534.966 582.219, 541 572.967, 541 570.102 C 541 569.521, 532.15 569.011, 518.75 568.819 C 498.182 568.524, 496.198 568.336, 492.5 566.338 C 483.821 561.646, 479 553.972, 479 544.848 C 479 535.816, 484.075 528.274, 491.387 526.439 C 493.446 525.922, 495.577 523.54, 499.723 517.122 C 502.787 512.38, 505.34 507.828, 505.397 507.006 C 505.538 504.954, 497.479 504.064, 488.5 505.14 C 470.458 507.302, 453.382 522.251, 448.588 540.083 Z M 473.08 400.75 C 471.829 402.898, 471.743 406.046, 472.885 407.849 C 473.747 409.209, 483.518 412.357, 512.074 420.477 C 520.639 422.913, 534.465 427.182, 542.797 429.965 C 547.847 431.651, 552.897 433.338, 557.947 435.024 C 570.3 434.937, 582.653 434.85, 595.005 434.762 C 607.358 434.675, 619.71 434.587, 632.063 434.5 C 625.969 431.847, 619.875 429.193, 613.781 426.54 C 603.727 422.162, 591.9 416.697, 587.5 414.395 C 583.1 412.094, 572.94 407.688, 564.923 404.605 C 560.063 402.737, 555.204 400.868, 550.345 399 C 537.638 399, 524.93 399, 512.222 399 C 476.97 399, 474.023 399.132, 473.08 400.75 Z M 497.508 540.432 C 494.2 541.053, 494 541.316, 494 545.045 C 494 549.386, 496.363 552.585, 500.225 553.471 C 501.476 553.759, 522.525 554.108, 547 554.247 C 561.833 554.331, 576.667 554.416, 591.5 554.5 C 593.333 555.371, 595.167 556.243, 597 557.114 C 600.025 558.552, 607.45 563.46, 613.5 568.02 C 619.55 572.58, 626.75 577.34, 629.5 578.598 C 638.634 582.774, 644.714 583.162, 695.065 582.792 C 710.877 582.675, 726.688 582.559, 742.5 582.442 C 744.715 581.589, 746.93 580.736, 749.145 579.883 C 757.004 576.857, 764.664 571.467, 769.509 565.554 C 771.432 563.208, 776.335 554.361, 780.406 545.894 C 831.692 439.234, 839.057 423.444, 838.302 421.766 C 837.634 420.284, 836.681 421.094, 832.608 426.602 C 829.903 430.262, 824.868 435.31, 821.342 437.899 C 819.217 439.459, 817.092 441.02, 814.968 442.58 C 807.527 458.067, 800.086 473.553, 792.645 489.04 C 780.368 514.593, 768.483 539.43, 766.234 544.233 C 761.29 554.793, 754.187 562.762, 746.702 566.148 C 744.968 566.932, 743.234 567.716, 741.5 568.5 C 724.5 568.5, 707.5 568.5, 690.5 568.5 C 631.544 568.5, 638.913 569.783, 620.916 556.389 C 610.378 548.547, 602.696 544.194, 595.5 541.987 C 591.082 540.633, 503.821 539.248, 497.508 540.432 Z M 535.982 488.626 C 523.369 507.807, 513.038 524.062, 513.025 524.75 C 513.007 525.637, 515.104 526, 520.255 526 C 522.673 526, 525.091 526, 527.51 526 C 535.629 513.763, 543.748 501.526, 551.867 489.289 C 565.264 469.098, 576.447 451.998, 576.719 451.289 C 577.096 450.308, 575.434 450, 569.762 450 C 563.745 450, 561.983 450.361, 560.613 451.876 C 559.679 452.907, 548.595 469.445, 535.982 488.626 Z M 554.521 511.739 C 552.034 515.446, 550.002 518.708, 550.004 518.989 C 550.006 519.27, 550.899 520.963, 551.989 522.75 C 552.65 523.833, 553.31 524.917, 553.971 526 C 556.809 526, 559.647 526, 562.485 526 C 572.487 526, 572.514 525.955, 567.873 516.721 C 564.19 509.393, 561.222 505, 559.953 505 C 559.452 505, 557.008 508.033, 554.521 511.739 Z M 574.413 481.73 C 571.502 486.004, 569.093 489.869, 569.06 490.321 C 569.027 490.772, 570.972 493.922, 573.382 497.321 C 578.459 504.479, 582.112 511.28, 585.299 519.507 C 586.052 521.451, 586.805 523.396, 587.558 525.34 C 590.548 526.083, 593.539 526.826, 596.529 527.569 C 601.463 528.795, 606.774 530.296, 608.331 530.905 C 611.146 532.006, 611.158 531.993, 610.491 528.756 C 609.136 522.177, 603.018 504.987, 599.655 498.307 C 596.199 491.446, 585.869 476.743, 582.651 474.108 C 580.609 472.435, 580.978 472.093, 574.413 481.73 Z M 579.713 360.75 C 577.331 367.654, 577.936 380.086, 580.942 386 C 584.325 392.658, 587.556 396.6, 592.28 399.834 C 594.601 401.424, 610 408.671, 626.5 415.94 C 675.441 437.501, 673 436.151, 673 441.66 C 673 443.941, 667.384 456.732, 655.397 481.755 C 630.546 533.631, 630.435 533.881, 631.563 535.669 C 632.094 536.51, 639.497 540.76, 648.014 545.112 C 660.005 551.24, 664.29 552.966, 667 552.763 C 670.299 552.515, 670.518 552.274, 670.821 548.572 C 671.09 545.283, 670.446 543.657, 666.871 538.587 C 664.124 534.691, 662.601 531.455, 662.602 529.515 C 662.603 527.473, 669.012 514.883, 682.465 490.5 C 714.219 432.947, 712.991 435.721, 710.938 426.146 C 709.104 417.593, 704.685 413.908, 678 398.682 C 665.075 391.307, 652.7 384.36, 650.5 383.245 C 644.975 380.442, 584.002 356, 582.538 356 C 581.885 356, 580.614 358.138, 579.713 360.75 Z M 598.577 316.5 C 592.827 329.7, 588.211 340.848, 588.319 341.274 C 588.428 341.7, 602.013 347.466, 618.508 354.086 C 635.004 360.707, 648.999 366.344, 649.609 366.615 C 650.265 366.905, 653.692 360.244, 658.001 350.303 C 662.008 341.061, 668.146 327.029, 671.643 319.121 C 675.139 311.213, 678 304.361, 678 303.894 C 678 303.428, 673.5 296.813, 668 289.195 C 657.686 274.908, 656.659 272.359, 659.557 268.223 C 660.713 266.572, 662.117 266, 665.014 266 C 669.573 266, 667.831 264.043, 688.596 292.5 C 696.622 303.5, 704.58 313.957, 706.279 315.738 C 710.808 320.484, 715.689 321.786, 733.5 322.999 C 742.3 323.598, 757.515 324.743, 767.31 325.544 C 792.239 327.582, 792.59 327.564, 796.077 324.077 C 799.693 320.461, 800.086 314.65, 796.98 310.702 C 794.559 307.624, 793.867 307.472, 757 301.903 C 741.875 299.619, 728.484 297.366, 727.241 296.896 C 724.706 295.938, 720.148 289.066, 701.444 258 C 688.206 236.011, 683.305 229.787, 676.808 226.71 C 664.147 220.713, 650.231 223.453, 638.394 234.271 C 632.262 239.875, 629.069 245.858, 616.12 276 C 612.221 285.075, 604.327 303.3, 598.577 316.5 Z M 592.695 453.75 C 591.279 455.812, 590.093 458.112, 590.06 458.86 C 590.027 459.608, 592.26 462.693, 595.023 465.715 C 597.785 468.738, 602.991 475.678, 606.591 481.137 C 608.772 484.446, 610.954 487.755, 613.136 491.064 C 616.797 490.97, 620.457 490.876, 624.117 490.782 C 627.778 490.688, 631.438 490.594, 635.099 490.5 C 638.249 483.896, 641.399 477.293, 644.549 470.689 C 649.747 459.794, 654 450.681, 654 450.439 C 654 450.198, 640.786 450, 624.635 450 C 614.847 450, 605.059 450, 595.271 450 C 594.412 451.25, 593.554 452.5, 592.695 453.75 Z M 623 505 C 618.371 505, 618.073 506.072, 620.919 512.5 C 621.51 513.833, 622.1 515.167, 622.69 516.5 C 623.409 515.097, 624.127 513.693, 624.845 512.29 C 628.014 506.098, 627.736 505, 623 505 Z M 659.071 170.716 C 658.146 176.892, 658.503 184.232, 660.143 192.786 C 660.481 194.548, 660.819 196.31, 661.157 198.073 C 672.214 203.644, 683.271 209.215, 694.328 214.786 C 712.573 223.979, 728.714 231.639, 730.197 231.809 C 732.424 232.065, 733.5 231.285, 736.367 227.334 C 738.277 224.702, 739.624 222.201, 739.362 221.776 C 739.099 221.351, 731.611 217.324, 722.721 212.828 C 703.396 203.054, 698.035 198.485, 696.016 190.066 C 693.368 179.03, 698.634 168.555, 709.089 164.057 C 715.023 161.504, 718.903 161.569, 734.254 164.478 C 739.618 165.495, 744.277 166.057, 744.606 165.727 C 745.582 164.751, 740.222 153.977, 736.501 149.436 C 728.872 140.126, 715.432 134, 702.637 134 C 680.502 134, 662.266 149.368, 659.071 170.716 Z M 674.605 349 C 668.794 362.475, 664.03 373.551, 664.02 373.612 C 664.009 373.674, 669.639 376.971, 676.531 380.939 C 680.708 383.344, 684.885 385.748, 689.062 388.153 C 691.775 386.412, 694.489 384.672, 697.202 382.931 C 713.627 372.395, 738.377 362.51, 759.662 357.986 C 765.743 356.693, 775.229 355.672, 784.5 355.312 C 797.579 354.805, 800.525 354.992, 807.5 356.776 C 811.9 357.902, 816.243 359.118, 817.15 359.48 C 818.462 360.003, 818.936 359.336, 819.46 356.235 C 820.67 349.074, 826.789 342.082, 833.259 340.467 C 837.211 339.481, 837.311 338.729, 834.084 334.274 C 830.832 329.785, 826.24 327.591, 817.999 326.588 C 816.166 326.365, 814.332 326.142, 812.499 325.918 C 811.845 327.133, 811.191 328.347, 810.537 329.562 C 807.814 334.618, 802.436 338.795, 796.359 340.574 C 791.609 341.964, 788.24 341.846, 752.096 339.02 C 705.24 335.357, 704.993 335.296, 694.737 324.763 C 692.483 322.448, 690.228 320.133, 687.974 317.818 C 687.507 318.931, 687.04 320.045, 686.573 321.159 C 685.802 322.996, 680.416 335.525, 674.605 349 Z M 684.285 517.333 C 680.882 523.475, 678.076 528.597, 678.049 528.715 C 678.022 528.834, 679.356 531.068, 681.013 533.681 C 684.553 539.264, 685.987 543.888, 685.994 549.75 C 685.996 551.167, 685.998 552.583, 686 554 C 689.129 554, 692.259 554, 695.388 554 C 698.518 554, 701.647 554, 704.777 554 C 703.989 552.083, 703.2 550.167, 702.412 548.25 C 699.589 541.385, 699.194 530.72, 701.511 523.928 C 703.734 517.409, 709.837 509.939, 715.918 506.293 C 729.856 497.937, 746.5 500.344, 757.72 512.338 C 763.196 518.193, 762.596 518.642, 769.535 503.476 C 772.427 497.153, 773.981 492.604, 773.425 492.084 C 772.916 491.607, 763.571 487.488, 752.658 482.93 C 741.745 478.372, 731.733 473.791, 730.408 472.749 C 725.784 469.112, 728.529 460, 734.249 460 C 735.278 460, 741.831 462.432, 748.81 465.405 C 755.79 468.377, 764.2 471.926, 767.5 473.292 C 770.8 474.657, 775.212 476.516, 777.304 477.423 C 778.572 477.973, 779.84 478.522, 781.107 479.072 C 783.393 474.31, 785.679 469.548, 787.965 464.786 C 790.251 460.024, 792.537 455.262, 794.823 450.5 C 782.57 450.413, 770.317 450.325, 758.064 450.238 C 745.811 450.151, 733.558 450.063, 721.305 449.976 C 719.026 454.23, 716.748 458.484, 714.47 462.738 C 710.711 469.757, 705.917 478.358, 703.818 481.852 C 699.111 489.683, 699.018 491, 703.171 491 C 707.419 491, 710 493.515, 710 497.655 C 710 502.954, 707.452 504.663, 698.35 505.469 C 695.724 505.701, 693.098 505.934, 690.472 506.166 C 688.41 509.889, 686.347 513.611, 684.285 517.333 Z M 708.25 393.333 C 705.912 394.814, 704 396.233, 704 396.487 C 704 396.741, 705.421 397.683, 707.157 398.581 C 717.332 403.843, 724.901 415.881, 725.783 428.205 C 725.945 430.47, 726.107 432.735, 726.269 435 C 737.154 435, 748.039 435, 758.924 435 C 785.211 435, 792.742 434.697, 797.54 433.448 C 814.025 429.155, 827.552 414.447, 828.751 399.512 C 829.759 386.951, 823.851 377.878, 811.419 372.9 C 805.987 370.725, 804.06 370.528, 788 370.515 C 768.711 370.498, 763.394 371.359, 743.5 377.714 C 732.109 381.353, 715.649 388.647, 708.25 393.333 Z M 710.669 180.229 C 709.579 182.939, 710.122 187.598, 711.772 189.682 C 714.068 192.582, 742.898 207.504, 744.021 206.374 C 745.096 205.294, 747.564 183.23, 746.706 182.373 C 746.365 182.031, 739.483 180.476, 731.414 178.917 C 718.213 176.366, 716.463 176.226, 713.961 177.52 C 712.432 178.311, 710.951 179.53, 710.669 180.229 Z M 715.459 528.655 C 713.646 533.74, 713.67 537.274, 715.548 541.768 C 717.612 546.71, 720.659 549.876, 725.5 552.11 C 732.856 555.505, 739.921 554.318, 745.869 548.689 C 753.874 541.112, 754.217 530.029, 746.689 522.172 C 736.821 511.872, 720.213 515.32, 715.459 528.655 Z M 833.406 536.486 C 832.503 540.449, 832.148 546.934, 832.366 555.5 C 832.659 566.97, 833.074 569.618, 835.9 578 C 840.399 591.346, 845.808 600.013, 855.913 610.067 C 873.236 627.302, 893.846 635.169, 917.788 633.685 C 929.72 632.945, 937.106 631.028, 947.5 625.973 C 975.815 612.2, 992.972 584.755, 992.993 553.197 C 993.009 529.753, 984.433 510.059, 967.142 493.834 C 957.575 484.857, 947.344 478.921, 935.625 475.547 C 920.852 471.295, 901 470.832, 901 474.74 C 901 475.63, 901.971 479.374, 903.158 483.059 C 903.878 485.293, 904.597 487.527, 905.317 489.76 C 909.014 489.919, 912.711 490.078, 916.408 490.236 C 925.211 490.614, 928.916 491.257, 934.361 493.353 C 970.339 507.201, 985.959 547.295, 968.875 581.942 C 962.055 595.775, 948.364 607.86, 933.659 613.029 C 910.176 621.282, 885.584 615.615, 868.035 597.905 C 856.527 586.291, 850.348 572.777, 849.295 556.916 C 848.312 542.106, 853.804 524.43, 862.571 514.188 C 864.457 511.985, 866 509.648, 866 508.996 C 866 507.016, 861.801 493.567, 860.864 492.544 C 859.607 491.172, 850.773 500.139, 845.283 508.359 C 840.293 515.83, 835.562 527.033, 833.406 536.486 Z M 836.223 355.557 C 835 356.413, 834 357.794, 834 358.625 C 834 359.457, 840.555 380.469, 848.567 405.319 C 856.579 430.168, 865.523 457.925, 868.443 467 C 887.508 526.245, 895.027 549.182, 895.948 550.902 C 897.394 553.605, 900.587 554.414, 904.086 552.964 C 908.775 551.022, 908.773 548.215, 904.074 533.606 C 901.755 526.398, 893.624 501.15, 886.005 477.5 C 861.76 402.244, 854.883 380.803, 850.974 368.284 C 848.876 361.565, 846.872 355.603, 846.521 355.034 C 845.546 353.456, 838.727 353.802, 836.223 355.557 Z M 865.12 542.582 C 861.499 558.023, 866.656 575.587, 878.221 587.198 C 897.836 606.892, 929.424 606.545, 947.857 586.434 C 973.611 558.337, 959.389 513.335, 922.27 505.469 C 913.327 503.574, 911 503.608, 911 505.632 C 911 506.529, 913.471 514.862, 916.491 524.15 C 922.949 544.009, 923.566 547.186, 922.052 552.805 C 918.494 566.021, 901.455 572.479, 889.742 565.052 C 884.164 561.514, 882.672 558.753, 877.014 541.5 C 874.669 534.35, 872.427 528.143, 872.032 527.706 C 871.18 526.766, 866.433 536.982, 865.12 542.582 Z M 868.03 363.689 C 866.913 365.108, 866 366.453, 866 366.677 C 866 366.902, 867.799 372.614, 869.997 379.372 C 873.047 388.747, 874.529 391.935, 876.247 392.823 C 878.913 394.2, 886.877 397, 888.126 397 C 888.607 397, 889 387.325, 889 375.5 C 889 368.333, 889 361.167, 889 354 C 888.211 354, 887.423 354, 886.634 354 C 883.206 354, 870.409 360.665, 868.03 363.689 Z " fill="rgb(46,145,82)"/></g><g data-color-group="#fcfefe" id="pale-cyan"><path d="M 497.508 540.432 C 503.821 539.248, 591.082 540.633, 595.5 541.987 C 602.696 544.194, 610.378 548.547, 620.916 556.389 C 638.913 569.783, 631.544 568.5, 690.5 568.5 C 707.5 568.5, 724.5 568.5, 741.5 568.5 C 743.234 567.716, 744.968 566.932, 746.702 566.148 C 754.187 562.762, 761.29 554.793, 766.234 544.233 C 768.483 539.43, 780.368 514.593, 792.645 489.04 C 800.086 473.553, 807.527 458.067, 814.968 442.58 C 817.092 441.02, 819.217 439.459, 821.342 437.899 C 824.868 435.31, 829.903 430.262, 832.608 426.602 C 836.681 421.094, 837.634 420.284, 838.302 421.766 C 839.057 423.444, 831.692 439.234, 780.406 545.894 C 776.335 554.361, 771.432 563.208, 769.509 565.554 C 764.664 571.467, 757.004 576.857, 749.145 579.883 C 746.93 580.736, 744.715 581.589, 742.5 582.442 C 726.688 582.559, 710.877 582.675, 695.065 582.792 C 644.714 583.162, 638.634 582.774, 629.5 578.598 C 626.75 577.34, 619.55 572.58, 613.5 568.02 C 607.45 563.46, 600.025 558.552, 597 557.114 C 595.167 556.243, 593.333 555.371, 591.5 554.5 C 576.667 554.416, 561.833 554.331, 547 554.247 C 522.525 554.108, 501.476 553.759, 500.225 553.471 C 496.363 552.585, 494 549.386, 494 545.045 C 494 541.316, 494.2 541.053, 497.508 540.432 Z " fill="rgb(252,254,254)"/><path d="M 535.982 488.626 C 548.595 469.445, 559.679 452.907, 560.613 451.876 C 561.983 450.361, 563.745 450, 569.762 450 C 575.434 450, 577.096 450.308, 576.719 451.289 C 576.447 451.998, 565.264 469.098, 551.867 489.289 C 543.748 501.526, 535.629 513.763, 527.51 526 C 525.091 526, 522.673 526, 520.255 526 C 515.104 526, 513.007 525.637, 513.025 524.75 C 513.038 524.062, 523.369 507.807, 535.982 488.626 Z " fill="rgb(252,254,254)"/><path d="M 554.521 511.739 C 557.008 508.033, 559.452 505, 559.953 505 C 561.222 505, 564.19 509.393, 567.873 516.721 C 572.514 525.955, 572.487 526, 562.485 526 C 559.647 526, 556.809 526, 553.971 526 C 553.31 524.917, 552.65 523.833, 551.989 522.75 C 550.899 520.963, 550.006 519.27, 550.004 518.989 C 550.002 518.708, 552.034 515.446, 554.521 511.739 Z " fill="rgb(252,254,254)"/></g><g data-color-group="#fdffff" id="pale-cyan-2"><path d="M 574.413 481.73 C 580.978 472.093, 580.609 472.435, 582.651 474.108 C 585.869 476.743, 596.199 491.446, 599.655 498.307 C 603.018 504.987, 609.136 522.177, 610.491 528.756 C 611.158 531.993, 611.146 532.006, 608.331 530.905 C 606.774 530.296, 601.463 528.795, 596.529 527.569 C 593.539 526.826, 590.548 526.083, 587.558 525.34 C 586.805 523.396, 586.052 521.451, 585.299 519.507 C 582.112 511.28, 578.459 504.479, 573.382 497.321 C 570.972 493.922, 569.027 490.772, 569.06 490.321 C 569.093 489.869, 571.502 486.004, 574.413 481.73 Z " fill="rgb(253,255,255)"/><path d="M 836.223 355.557 C 838.727 353.802, 845.546 353.456, 846.521 355.034 C 846.872 355.603, 848.876 361.565, 850.974 368.284 C 854.883 380.803, 861.76 402.244, 886.005 477.5 C 893.624 501.15, 901.755 526.398, 904.074 533.606 C 908.773 548.215, 908.775 551.022, 904.086 552.964 C 900.587 554.414, 897.394 553.605, 895.948 550.902 C 895.027 549.182, 887.508 526.245, 868.443 467 C 865.523 457.925, 856.579 430.168, 848.567 405.319 C 840.555 380.469, 834 359.457, 834 358.625 C 834 357.794, 835 356.413, 836.223 355.557 Z " fill="rgb(253,255,255)"/></g><g data-color-group="#f4fffd" id="pale-teal"><path d="M 623 505 C 627.736 505, 628.014 506.098, 624.845 512.29 C 624.127 513.693, 623.409 515.097, 622.69 516.5 C 622.1 515.167, 621.51 513.833, 620.919 512.5 C 618.073 506.072, 618.371 505, 623 505 Z " fill="rgb(244,255,253)" style="display:none"/></g><g data-color-group="#d5e7dd" id="pale-green"><path d="M 740.809 393.191 C 744.677 389.323, 773.757 383.019, 787.792 383.006 C 795.941 382.998, 808.81 385.605, 812 387.91 C 815.661 390.555, 815.525 396.519, 811.739 399.346 C 809.207 401.236, 808.625 401.297, 804.739 400.085 C 798.656 398.188, 780.817 397.594, 772.113 398.998 C 768.042 399.655, 761.097 401.274, 756.679 402.596 C 752.262 403.918, 747.377 405, 745.824 405 C 740.003 405, 736.724 397.276, 740.809 393.191 Z " fill="rgb(213,231,221)" style="display:none"/></g></svg>