<svg fill="none" height="100%" width="100%" viewBox="0 0 50 50" xmlns:xlink="http://www.w3.org/1999/xlink" xmlns="http://www.w3.org/2000/svg"><g transform="matrix(1,0,0,1,11.162,15.568)" id="i0"><g id="i1" transform="matrix(1,0,0,1,2.817,9.431)"><path fill="#fdbbbb" d="M-1.662,-4.81C-1.058,-6.327,-0.204,-7.664,0.903,-8.825C1.116,-9.064,1.358,-9.181,1.628,-9.174C1.898,-9.168,2.126,-9.061,2.313,-8.854C2.492,-8.661,2.567,-8.433,2.537,-8.169C2.507,-7.906,2.393,-7.664,2.192,-7.445C1.253,-6.465,0.538,-5.337,0.048,-4.06C-0.442,-2.784,-0.687,-1.429,-0.687,0.004C-0.687,1.444,-0.442,2.8,0.048,4.074C0.538,5.346,1.253,6.473,2.192,7.453C2.393,7.672,2.507,7.915,2.537,8.178C2.567,8.441,2.492,8.669,2.313,8.863C2.126,9.069,1.898,9.174,1.628,9.177C1.358,9.181,1.116,9.069,0.903,8.842C-0.204,7.683,-1.058,6.343,-1.662,4.824C-2.265,3.303,-2.567,1.697,-2.567,0.004C-2.567,-1.689,-2.265,-3.294,-1.662,-4.81Z"><animate repeatCount="indefinite" attributeName="fill" dur="0.833s" begin="0s" fill="freeze" values="#fdbbbb; #fdbbbb; #ff0000; #fdbbbb" keyTimes="0; 0.6; 0.8; 1" keySplines="0 0 1 1; 0 0 1 1; 0 0 1 1" calcMode="spline" /></path></g></g><g transform="matrix(1,0,0,1,14.861,18.008)" id="i2"><g id="i1" transform="matrix(1,0,0,1,2.302,6.995)"><path fill="#fdbbbb" d="M-1.432,-3.46C-1.019,-4.56,-0.422,-5.528,0.358,-6.368C0.565,-6.608,0.809,-6.731,1.092,-6.738C1.376,-6.745,1.611,-6.639,1.797,-6.419C1.978,-6.206,2.052,-5.973,2.023,-5.719C1.992,-5.466,1.871,-5.225,1.657,-4.999C1.058,-4.325,0.601,-3.564,0.288,-2.714C-0.026,-1.864,-0.182,-0.96,-0.182,-0.001C-0.182,0.959,-0.026,1.864,0.288,2.714C0.601,3.564,1.058,4.325,1.657,4.999C1.871,5.226,1.992,5.466,2.023,5.719C2.052,5.972,1.978,6.202,1.797,6.408C1.611,6.636,1.376,6.745,1.092,6.738C0.809,6.731,0.565,6.606,0.358,6.359C-0.422,5.52,-1.019,4.551,-1.432,3.454C-1.845,2.357,-2.052,1.206,-2.052,-0.001C-2.052,-1.207,-1.845,-2.36,-1.432,-3.46Z"><animate repeatCount="indefinite" attributeName="fill" dur="0.833s" begin="0s" fill="freeze" values="#fdbbbb; #fdbbbb; #ff0000; #fdbbbb; #fdbbbb" keyTimes="0; 0.4; 0.6; 0.8; 1" keySplines="0 0 1 1; 0 0 1 1; 0 0 1 1; 0 0 1 1" calcMode="spline" /></path></g></g><g transform="matrix(1,0,0,1,18.551,20.62)" id="i3"><g id="i1" transform="matrix(1,0,0,1,1.745,4.383)"><path fill="#fdbbbb" d="M-1.165,-1.985C-0.945,-2.622,-0.628,-3.196,-0.215,-3.71C-0.022,-3.97,0.223,-4.107,0.52,-4.12C0.816,-4.133,1.062,-4.027,1.255,-3.8C1.428,-3.6,1.496,-3.378,1.46,-3.135C1.423,-2.892,1.314,-2.643,1.135,-2.39C0.888,-2.064,0.7,-1.698,0.57,-1.295C0.44,-0.892,0.374,-0.461,0.374,-0.001C0.374,0.459,0.44,0.891,0.57,1.295C0.7,1.697,0.888,2.062,1.135,2.39C1.314,2.642,1.423,2.89,1.46,3.134C1.496,3.378,1.428,3.598,1.255,3.799C1.062,4.025,0.816,4.133,0.52,4.119C0.223,4.105,-0.022,3.969,-0.215,3.709C-0.628,3.196,-0.945,2.621,-1.165,1.984C-1.385,1.348,-1.495,0.686,-1.495,-0.001C-1.495,-0.687,-1.385,-1.349,-1.165,-1.985Z"><animate repeatCount="indefinite" attributeName="fill" dur="0.833s" begin="0s" fill="freeze" values="#fdbbbb; #fdbbbb; #ff0000; #fdbbbb; #fdbbbb" keyTimes="0; 0.2; 0.4; 0.6; 1" keySplines="0 0 1 1; 0 0 1 1; 0 0 1 1; 0 0 1 1" calcMode="spline" /></path></g></g><g transform="matrix(1,0,0,1,22.22,22.194)" id="i4"><g id="i1" transform="matrix(1,0,0,1,2.78,2.805)"><path fill="#fdbbbb" d="M-1.255,2.204C-1.638,1.971,-1.946,1.662,-2.18,1.275C-2.413,0.889,-2.529,0.461,-2.529,-0.005C-2.529,-0.472,-2.413,-0.896,-2.18,-1.279C-1.946,-1.663,-1.638,-1.971,-1.255,-2.204C-0.872,-2.438,-0.452,-2.555,0.001,-2.555C0.454,-2.555,0.871,-2.438,1.255,-2.204C1.638,-1.971,1.946,-1.663,2.18,-1.279C2.413,-0.896,2.529,-0.472,2.529,-0.005C2.529,0.461,2.413,0.889,2.18,1.275C1.946,1.662,1.638,1.971,1.255,2.204C0.871,2.437,0.454,2.555,0.001,2.555C-0.452,2.555,-0.872,2.437,-1.255,2.204Z"><animate repeatCount="indefinite" attributeName="fill" dur="0.833s" begin="0s" fill="freeze" values="#fdbbbb; #ff0000; #fdbbbb; #fdbbbb" keyTimes="0; 0.2; 0.4; 1" keySplines="0 0 1 1; 0 0 1 1; 0 0 1 1" calcMode="spline" /></path></g></g><g transform="matrix(1,0,0,1,27.939,20.621)" id="i5"><g id="i1" transform="matrix(1,0,0,1,1.755,4.383)"><path fill="#fdbbbb" d="M1.17,1.984C0.946,2.621,0.632,3.197,0.225,3.71C0.025,3.969,-0.222,4.106,-0.515,4.12C-0.809,4.133,-1.052,4.026,-1.245,3.799C-1.432,3.599,-1.505,3.378,-1.465,3.133C-1.425,2.89,-1.314,2.642,-1.135,2.389C-0.882,2.062,-0.69,1.698,-0.559,1.296C-0.43,0.892,-0.365,0.459,-0.365,-0.001C-0.365,-0.461,-0.43,-0.891,-0.559,-1.294C-0.69,-1.698,-0.882,-2.064,-1.135,-2.391C-1.314,-2.643,-1.425,-2.892,-1.465,-3.135C-1.505,-3.378,-1.432,-3.599,-1.245,-3.799C-1.052,-4.026,-0.809,-4.133,-0.515,-4.12C-0.222,-4.107,0.025,-3.97,0.225,-3.71C0.632,-3.197,0.946,-2.621,1.17,-1.984C1.393,-1.348,1.505,-0.687,1.505,-0.001C1.505,0.686,1.393,1.347,1.17,1.984Z"><animate repeatCount="indefinite" attributeName="fill" dur="0.833s" begin="0s" fill="freeze" values="#fdbbbb; #fdbbbb; #ff0000; #fdbbbb; #fdbbbb" keyTimes="0; 0.2; 0.4; 0.6; 1" keySplines="0 0 1 1; 0 0 1 1; 0 0 1 1; 0 0 1 1" calcMode="spline" /></path></g></g><g transform="matrix(1,0,0,1,30.535,18.008)" id="i6"><g id="i1" transform="matrix(1,0,0,1,2.302,6.995)"><path fill="#fdbbbb" d="M1.432,3.454C1.019,4.551,0.422,5.519,-0.358,6.359C-0.571,6.606,-0.818,6.731,-1.097,6.738C-1.378,6.745,-1.611,6.636,-1.797,6.408C-1.977,6.202,-2.052,5.972,-2.022,5.719C-1.993,5.466,-1.875,5.225,-1.668,4.999C-1.068,4.325,-0.609,3.564,-0.293,2.714C0.024,1.864,0.182,0.959,0.182,-0.001C0.182,-0.96,0.024,-1.864,-0.293,-2.714C-0.609,-3.564,-1.068,-4.325,-1.668,-4.999C-1.875,-5.225,-1.993,-5.466,-2.022,-5.719C-2.052,-5.973,-1.977,-6.205,-1.797,-6.419C-1.611,-6.638,-1.378,-6.745,-1.097,-6.738C-0.818,-6.732,-0.571,-6.608,-0.358,-6.368C0.422,-5.528,1.019,-4.56,1.432,-3.46C1.845,-2.36,2.052,-1.207,2.052,-0.001C2.052,1.206,1.845,2.357,1.432,3.454Z"><animate repeatCount="indefinite" attributeName="fill" dur="0.833s" begin="0s" fill="freeze" values="#fdbbbb; #fdbbbb; #ff0000; #fdbbbb; #fdbbbb" keyTimes="0; 0.4; 0.6; 0.8; 1" keySplines="0 0 1 1; 0 0 1 1; 0 0 1 1; 0 0 1 1" calcMode="spline" /></path></g></g><g transform="matrix(1,0,0,1,33.204,15.567)" id="i7"><g id="i1" transform="matrix(1,0,0,1,2.817,9.431)"><path fill="#fdbbbb" d="M1.657,4.824C1.051,6.344,0.197,7.683,-0.903,8.843C-1.115,9.069,-1.359,9.181,-1.632,9.178C-1.906,9.175,-2.132,9.069,-2.312,8.863C-2.492,8.67,-2.567,8.441,-2.537,8.178C-2.507,7.915,-2.392,7.673,-2.193,7.453C-1.259,6.473,-0.546,5.346,-0.053,4.074C0.441,2.801,0.687,1.444,0.687,0.004C0.687,-1.429,0.441,-2.783,-0.053,-4.06C-0.546,-5.337,-1.259,-6.465,-2.193,-7.445C-2.392,-7.664,-2.507,-7.906,-2.537,-8.169C-2.567,-8.433,-2.492,-8.661,-2.312,-8.854C-2.132,-9.061,-1.906,-9.168,-1.632,-9.174C-1.359,-9.181,-1.115,-9.064,-0.903,-8.824C0.197,-7.664,1.051,-6.326,1.657,-4.81C2.263,-3.294,2.567,-1.689,2.567,0.004C2.567,1.697,2.263,3.303,1.657,4.824Z"><animate repeatCount="indefinite" attributeName="fill" dur="0.833s" begin="0s" fill="freeze" values="#fdbbbb; #fdbbbb; #ff0000; #fdbbbb" keyTimes="0; 0.6; 0.8; 1" keySplines="0 0 1 1; 0 0 1 1; 0 0 1 1" calcMode="spline" /></path></g></g></svg>